<?xml version="1.0" encoding="utf-8"?><svg viewBox="0 0 576 512" xmlns="http://www.w3.org/2000/svg" xmlns:xlink="http://www.w3.org/1999/xlink"><style>:root>svg{display:none}:root>svg:target{display:block}</style><svg viewBox="0 0 512 512" id="facebook" xmlns="http://www.w3.org/2000/svg"><path d="M504 256C504 119 393 8 256 8S8 119 8 256c0 123.78 90.69 226.38 209.25 245V327.69h-63V256h63v-54.64c0-62.15 37-96.48 93.67-96.48 27.14 0 55.52 4.84 55.52 4.84v61h-31.28c-30.8 0-40.41 19.12-40.41 38.73V256h68.78l-11 71.69h-57.78V501C413.31 482.38 504 379.78 504 256z"/></svg><svg viewBox="0 0 448 512" id="instagram" xmlns="http://www.w3.org/2000/svg"><!--! Font Awesome Pro 6.1.0 by @fontawesome - https://fontawesome.com License - https://fontawesome.com/license (Commercial License) Copyright 2022 Fonticons, Inc.--><path d="M224.1 141c-63.6 0-114.9 51.3-114.9 114.9s51.3 114.9 114.9 114.9S339 319.5 339 255.9 287.7 141 224.1 141zm0 189.6c-41.1 0-74.7-33.5-74.7-74.7s33.5-74.7 74.7-74.7 74.7 33.5 74.7 74.7-33.6 74.7-74.7 74.7zm146.4-194.3c0 14.9-12 26.8-26.8 26.8-14.9 0-26.8-12-26.8-26.8s12-26.8 26.8-26.8 26.8 12 26.8 26.8zm76.1 27.2c-1.7-35.9-9.9-67.7-36.2-93.9-26.2-26.2-58-34.4-93.9-36.2-37-2.1-147.9-2.1-184.9 0-35.8 1.7-67.6 9.9-93.9 36.1s-34.4 58-36.2 93.9c-2.1 37-2.1 147.9 0 184.9 1.7 35.9 9.9 67.7 36.2 93.9s58 34.4 93.9 36.2c37 2.1 147.9 2.1 184.9 0 35.9-1.7 67.7-9.9 93.9-36.2 26.2-26.2 34.4-58 36.2-93.9 2.1-37 2.1-147.8 0-184.8zM398.8 388c-7.8 19.6-22.9 34.7-42.6 42.6-29.5 11.7-99.5 9-132.1 9s-102.7 2.6-132.1-9c-19.6-7.8-34.7-22.9-42.6-42.6-11.7-29.5-9-99.5-9-132.1s-2.6-102.7 9-132.1c7.8-19.6 22.9-34.7 42.6-42.6 29.5-11.7 99.5-9 132.1-9s102.7-2.6 132.1 9c19.6 7.8 34.7 22.9 42.6 42.6 11.7 29.5 9 99.5 9 132.1s2.7 102.7-9 132.1z"/></svg><svg viewBox="0 0 448 512" id="linkedin" xmlns="http://www.w3.org/2000/svg"><!--! Font Awesome Pro 6.1.0 by @fontawesome - https://fontawesome.com License - https://fontawesome.com/license (Commercial License) Copyright 2022 Fonticons, Inc.--><path d="M416 32H31.9C14.3 32 0 46.5 0 64.3v383.4C0 465.5 14.3 480 31.9 480H416c17.6 0 32-14.5 32-32.3V64.3c0-17.8-14.4-32.3-32-32.3zM135.4 416H69V202.2h66.5V416zm-33.2-243c-21.3 0-38.5-17.3-38.5-38.5S80.9 96 102.2 96c21.2 0 38.5 17.3 38.5 38.5 0 21.3-17.2 38.5-38.5 38.5zm282.1 243h-66.4V312c0-24.8-.5-56.7-34.5-56.7-34.6 0-39.9 27-39.9 54.9V416h-66.4V202.2h63.7v29.2h.9c8.9-16.8 30.6-34.5 62.9-34.5 67.2 0 79.7 44.3 79.7 101.9V416z"/></svg><svg version="1.1" id="logo" x="0" y="0" viewBox="0 0 431 184" xml:space="preserve" xmlns="http://www.w3.org/2000/svg"><style>.dst0{fill:#ee7601}.dst1{fill:#fff}</style><path class="dst0" d="M339 0H92C41.19 0 0 41.19 0 92v92h339c50.81 0 92-41.19 92-92S389.81 0 339 0z"/><path class="dst1" d="M100.51 108.74c.86.15 1.49.9 1.49 1.77v20.48c-.33.01-.67.01-1 .01-5.33 0-10.4-1.09-15-3.07-13.53-5.82-23-19.27-23-34.93V55.81c0-1 .81-1.81 1.81-1.81h19.38c1 0 1.81.81 1.81 1.81V91.5c0 8.64 6.27 15.82 14.51 17.24z"/><path class="dst1" d="M138.5 54.5C117.24 54.5 100 71.74 100 93s17.24 38.5 38.5 38.5S177 114.26 177 93s-17.24-38.5-38.5-38.5zm0 55c-9.11 0-16.5-7.39-16.5-16.5s7.39-16.5 16.5-16.5S155 83.89 155 93s-7.39 16.5-16.5 16.5zM298.5 54.5C277.24 54.5 260 71.74 260 93s17.24 38.5 38.5 38.5S337 114.26 337 93s-17.24-38.5-38.5-38.5zm0 55c-9.11 0-16.5-7.39-16.5-16.5s7.39-16.5 16.5-16.5S315 83.89 315 93s-7.39 16.5-16.5 16.5zM257 93c0-21.54-17.69-38.95-39.33-38.49-19.53.41-35.91 15.73-37.53 35.2-.6 7.15.77 13.95 3.62 19.89a38.62 38.62 0 0017.41 17.79c.02.01.03.01.05.02 5.2 2.62 11.07 4.09 17.28 4.09 5.81 0 11.32-1.29 16.25-3.59-1.38 8-8.35 14.09-16.75 14.09-6.5 0-12.15-3.65-15.01-9.01-1.39-2.62-4.73-3.46-7.14-1.74l-11.78 8.41c-.68.49-.95 1.4-.59 2.16C189.56 154.9 202.95 164 218.5 164c19.89 0 36.27-14.89 38.29-34 .14-1.32.21-2.65.21-4V93zm-33.78 15.81c-1.5.45-3.08.69-4.72.69-1.82 0-3.57-.29-5.2-.84-6.56-2.18-11.3-8.37-11.3-15.66 0-.46.02-.92.06-1.37.69-8.47 7.79-15.13 16.44-15.13s15.75 6.66 16.44 15.13c.04.45.06.91.06 1.37 0 7.47-4.97 13.79-11.78 15.81zM366 122c0 7.73-6.27 14-14 14s-14-6.27-14-14 6.27-14 14-14 14 6.27 14 14zm-3-68h-23v29c0 12.7 10.3 23 23 23V54z"/></svg><svg viewBox="0 0 576 512" id="youtube" xmlns="http://www.w3.org/2000/svg"><!--! Font Awesome Pro 6.1.0 by @fontawesome - https://fontawesome.com License - https://fontawesome.com/license (Commercial License) Copyright 2022 Fonticons, Inc.--><path d="M549.655 124.083c-6.281-23.65-24.787-42.276-48.284-48.597C458.781 64 288 64 288 64S117.22 64 74.629 75.486c-23.497 6.322-42.003 24.947-48.284 48.597-11.412 42.867-11.412 132.305-11.412 132.305s0 89.438 11.412 132.305c6.281 23.65 24.787 41.5 48.284 47.821C117.22 448 288 448 288 448s170.78 0 213.371-11.486c23.497-6.321 42.003-24.171 48.284-47.821 11.412-42.867 11.412-132.305 11.412-132.305s0-89.438-11.412-132.305zm-317.51 213.508V175.185l142.739 81.205-142.739 81.201z"/></svg></svg>